:SAMPLES-PER-SECOND 30
:FULLY-SPECIFIED
:DEGREES
381
root  -47.243 34.701 -0.67139 -143.567 83.7712 -149.678
RightUpLeg  -13.9187 -16.0289 -10.4511
RightLeg  42.0995 -1.01151 -0.830387
RightFoot  16.9226 0.116617 -0.240652
RightToes  -41.0195 -0.226678 -0.320809
Spine  -0.649806 0.597123 0.120537
Spine1  -1.32361 1.26752 0.968311
HEad  -73.2309 -8.71472 18.4351
LeftShoulder1  -1.94126e-019 -3.10601e-018 -2.51263e-017
LeftArm  -13.3492 26.6079 -75.504
LeftForeArm  35.7635 -18.5421 -3.25979
LeftHand  -0.297382 -3.09731 4.30595
RightShoulder  -4.96962e-017 0 -2.36833e-017
RightArm  -19.9509 -16.4941 78.0199
RightForeArm  60.9507 21.9459 1.75822
RightHand  -0.24816 4.88999 -3.09921
LeftUpLeg  -15.4915 8.61972 -4.99534
LeftLeg  20.9834 20.0843 6.10275
LeftFoot  -4.86705 -0.0792557 -1.70316
LeftToes  5.12753 1.83942e-006 5.51297e-008
382
root  -46.7189 34.8592 -0.922143 -149.818 82.1851 -155.978
RightUpLeg  -14.7299 -16.656 -9.88359
RightLeg  39.1369 -0.535044 -0.403686
RightFoot  16.5772 0.0868568 -0.0564527
RightToes  -40.5273 -0.222709 -0.318081
Spine  -0.758025 0.350588 -0.141187
Spine1  -1.54368 0.765022 0.447758
HEad  -71.545 -9.61733 17.1573
LeftShoulder1  -1.94126e-019 -3.10601e-018 -2.51263e-017
LeftArm  -9.44248 25.6142 -74.8057
LeftForeArm  33.8171 -21.8474 -3.67035
LeftHand  -0.274267 -2.70222 4.15556
RightShoulder  -4.96962e-017 0 -2.36833e-017
RightArm  -20.8665 -18.8419 78.5539
RightForeArm  60.0292 23.7542 2.13588
RightHand  -0.345758 4.75769 -4.24635
LeftUpLeg  -12.4006 6.32485 -4.99045
LeftLeg  16.3972 20.8034 4.57965
LeftFoot  -3.82762 -0.049927 -1.33251
LeftToes  4.79853 1.83942e-006 5.51297e-008
383
root  -46.2475 34.901 -1.1779 -154.881 80.725 -161.051
RightUpLeg  -15.4573 -16.5774 -9.5945
RightLeg  35.4759 -1.33879 -0.846439
RightFoot  16.4743 0.123975 -0.311611
RightToes  -41.0576 -0.226987 -0.321018
Spine  -0.855086 0.121246 -0.446273
Spine1  -1.73881 0.295847 -0.160099
HEad  -69.7062 -10.3297 15.1044
LeftShoulder1  -1.94126e-019 -3.10601e-018 -2.51263e-017
LeftArm  -6.30305 24.1574 -74.2105
LeftForeArm  32.754 -24.2897 -3.90589
LeftHand  -0.268404 -2.84144 4.01233
RightShoulder  -4.96962e-017 0 -2.36833e-017
RightArm  -22.1438 -20.6943 78.4939
RightForeArm  58.9259 24.8602 2.39209
RightHand  -0.401882 4.28574 -5.09638
LeftUpLeg  -9.72769 4.47549 -5.31647
LeftLeg  12.5065 21.2911 3.22479
LeftFoot  -3.15449 -0.034398 -1.08762
LeftToes  4.97138 1.83942e-006 5.51297e-008
384
root  -45.8096 34.8494 -1.45773 -159.516 79.4669 -165.716
RightUpLeg  -16.0232 -15.6049 -9.66944
RightLeg  30.7043 -3.03537 -1.55722
RightFoot  16.132 0.192357 -0.802549
RightToes  -37.9127 -0.202027 -0.30303
Spine  -0.934313 -0.0702379 -0.79727
Spine1  -1.89562 -0.099881 -0.860364
HEad  -67.6647 -10.6733 12.3502
LeftShoulder1  -1.94126e-019 -3.10601e-018 -2.51263e-017
LeftArm  -4.26253 22.1738 -73.9369
LeftForeArm  32.5595 -25.643 -4.02025
LeftHand  -0.262756 -3.03874 3.85424
RightShoulder  -4.96962e-017 0 -2.36833e-017
RightArm  -23.9442 -22.0077 78.0109
RightForeArm  57.2116 24.9818 2.48188
RightHand  -0.427286 3.62371 -5.75388
LeftUpLeg  -7.86642 2.90116 -5.98532
LeftLeg  10.2031 21.7067 2.41961
LeftFoot  -3.16559 -0.0352313 -1.11339
LeftToes  5.67868 1.83942e-006 5.51297e-008
385
root  -45.4256 34.7688 -1.72844 -163.84 78.1275 -170.284
RightUpLeg  -16.5311 -13.4673 -9.86664
RightLeg  25.1211 -5.93916 -2.33087
RightFoot  16.4081 0.320197 -1.64946
RightToes  -35.6447 -0.184659 -0.289222
Spine  -1.03457 -0.229706 -1.17176
Spine1  -2.09074 -0.435017 -1.60596
HEad  -65.4792 -10.5717 9.47654
LeftShoulder1  -1.94126e-019 -3.10601e-018 -2.51263e-017
LeftArm  -3.75083 19.6893 -74.2005
LeftForeArm  33.6814 -25.6819 -3.97451
LeftHand  -0.295249 -3.08889 4.2804
RightShoulder  -4.96962e-017 0 -2.36833e-017
RightArm  -25.8726 -23.0205 77.3095
RightForeArm  55.6978 24.1071 2.36998
RightHand  -0.456525 2.49374 -6.92533
LeftUpLeg  -6.92597 1.90823 -6.78118
LeftLeg  9.33204 21.1697 2.04501
LeftFoot  -3.49383 -0.0416986 -1.20558
LeftToes  5.69053 1.83942e-006 5.51297e-008
